<mxfile host="app.diagrams.net" modified="2023-11-27T01:40:48.114Z" agent="Mozilla/5.0 (Windows NT 10.0; Win64; x64) AppleWebKit/537.36 (KHTML, like Gecko) Chrome/118.0.0.0 Safari/537.36 AVG/118.0.0.0" etag="i5xD3Y0jDbsm_-_bTP-x" version="22.1.4" type="google">
  <diagram name="Page-1" id="_fISIAsS43vt0T3RJhWT">
    <mxGraphModel grid="1" page="1" gridSize="10" guides="1" tooltips="1" connect="1" arrows="1" fold="1" pageScale="1" pageWidth="827" pageHeight="1169" math="0" shadow="0">
      <root>
        <mxCell id="0" />
        <mxCell id="1" parent="0" />
        <mxCell id="5nWIDLDmSM9QNlosTWBB-1" value="livre" style="swimlane;fontStyle=0;childLayout=stackLayout;horizontal=1;startSize=30;horizontalStack=0;resizeParent=1;resizeParentMax=0;resizeLast=0;collapsible=1;marginBottom=0;whiteSpace=wrap;html=1;" vertex="1" parent="1">
          <mxGeometry x="380" y="270" width="140" height="90" as="geometry" />
        </mxCell>
        <mxCell id="5nWIDLDmSM9QNlosTWBB-4" value="ID&amp;nbsp;&lt;span style=&quot;white-space: pre;&quot;&gt;&#x9;&lt;/span&gt;&amp;nbsp; &amp;nbsp; &amp;nbsp; &amp;nbsp; &amp;nbsp; &amp;nbsp; &amp;nbsp; &amp;nbsp; INT&lt;span style=&quot;white-space: pre;&quot;&gt;&#x9;&lt;/span&gt;PK" style="text;strokeColor=none;fillColor=none;align=left;verticalAlign=middle;spacingLeft=4;spacingRight=4;overflow=hidden;points=[[0,0.5],[1,0.5]];portConstraint=eastwest;rotatable=0;whiteSpace=wrap;html=1;" vertex="1" parent="5nWIDLDmSM9QNlosTWBB-1">
          <mxGeometry y="30" width="140" height="30" as="geometry" />
        </mxCell>
        <mxCell id="5nWIDLDmSM9QNlosTWBB-2" value="titre&amp;nbsp; &amp;nbsp; &amp;nbsp; &amp;nbsp;VARCHAR(255)" style="text;strokeColor=none;fillColor=none;align=left;verticalAlign=middle;spacingLeft=4;spacingRight=4;overflow=hidden;points=[[0,0.5],[1,0.5]];portConstraint=eastwest;rotatable=0;whiteSpace=wrap;html=1;" vertex="1" parent="5nWIDLDmSM9QNlosTWBB-1">
          <mxGeometry y="60" width="140" height="30" as="geometry" />
        </mxCell>
        <mxCell id="5nWIDLDmSM9QNlosTWBB-14" value="&amp;lt;c2&amp;gt; 2 arme max.&lt;br&gt;&amp;lt;c1&amp;gt; 5 discipline max" style="rounded=0;whiteSpace=wrap;html=1;" vertex="1" parent="1">
          <mxGeometry x="680" y="1050" width="120" height="60" as="geometry" />
        </mxCell>
        <mxCell id="5nWIDLDmSM9QNlosTWBB-16" value="lien_chapitre" style="swimlane;fontStyle=0;childLayout=stackLayout;horizontal=1;startSize=30;horizontalStack=0;resizeParent=1;resizeParentMax=0;resizeLast=0;collapsible=1;marginBottom=0;whiteSpace=wrap;html=1;" vertex="1" parent="1">
          <mxGeometry x="590" y="670" width="180" height="180" as="geometry" />
        </mxCell>
        <mxCell id="5nWIDLDmSM9QNlosTWBB-7" value="id&amp;nbsp; &amp;nbsp; &amp;nbsp; &amp;nbsp; &amp;nbsp; &amp;nbsp; &amp;nbsp; &amp;nbsp; &amp;nbsp; &amp;nbsp; &amp;nbsp; &amp;nbsp; &amp;nbsp; &amp;nbsp; &amp;nbsp; &amp;nbsp; &amp;nbsp;INT&amp;nbsp; &amp;nbsp;PK" style="text;strokeColor=none;fillColor=none;align=left;verticalAlign=middle;spacingLeft=4;spacingRight=4;overflow=hidden;points=[[0,0.5],[1,0.5]];portConstraint=eastwest;rotatable=0;whiteSpace=wrap;html=1;" vertex="1" parent="5nWIDLDmSM9QNlosTWBB-16">
          <mxGeometry y="30" width="180" height="30" as="geometry" />
        </mxCell>
        <mxCell id="5nWIDLDmSM9QNlosTWBB-33" value="id_livre&amp;nbsp; &amp;nbsp; &amp;nbsp; &amp;nbsp; &amp;nbsp; &amp;nbsp; &amp;nbsp; &amp;nbsp; &amp;nbsp; &amp;nbsp; &amp;nbsp; &amp;nbsp; &amp;nbsp; &amp;nbsp; &amp;nbsp; &amp;nbsp; &amp;nbsp;INT" style="text;strokeColor=none;fillColor=none;align=left;verticalAlign=middle;spacingLeft=4;spacingRight=4;overflow=hidden;points=[[0,0.5],[1,0.5]];portConstraint=eastwest;rotatable=0;whiteSpace=wrap;html=1;" vertex="1" parent="5nWIDLDmSM9QNlosTWBB-16">
          <mxGeometry y="60" width="180" height="30" as="geometry" />
        </mxCell>
        <mxCell id="4sbm2EOBQqG20B3NACQz-50" value="no_chapitre_destination&amp;nbsp; &amp;nbsp; &amp;nbsp;INT" style="text;strokeColor=none;fillColor=none;align=left;verticalAlign=middle;spacingLeft=4;spacingRight=4;overflow=hidden;points=[[0,0.5],[1,0.5]];portConstraint=eastwest;rotatable=0;whiteSpace=wrap;html=1;" vertex="1" parent="5nWIDLDmSM9QNlosTWBB-16">
          <mxGeometry y="90" width="180" height="30" as="geometry" />
        </mxCell>
        <mxCell id="rj1XDq68sv5McHetJD-t-1" value="no_chapitre_origine&amp;nbsp; &amp;nbsp; &amp;nbsp; &amp;nbsp; &amp;nbsp; &amp;nbsp; INT" style="text;strokeColor=none;fillColor=none;align=left;verticalAlign=middle;spacingLeft=4;spacingRight=4;overflow=hidden;points=[[0,0.5],[1,0.5]];portConstraint=eastwest;rotatable=0;whiteSpace=wrap;html=1;" vertex="1" parent="5nWIDLDmSM9QNlosTWBB-16">
          <mxGeometry y="120" width="180" height="30" as="geometry" />
        </mxCell>
        <mxCell id="5nWIDLDmSM9QNlosTWBB-17" value="chapitre_lier&amp;nbsp; &amp;nbsp; &amp;nbsp; &amp;nbsp; &amp;nbsp; &amp;nbsp; &amp;nbsp; &amp;nbsp; &amp;nbsp; &amp;nbsp; &amp;nbsp; &amp;nbsp;INT" style="text;strokeColor=none;fillColor=none;align=left;verticalAlign=middle;spacingLeft=4;spacingRight=4;overflow=hidden;points=[[0,0.5],[1,0.5]];portConstraint=eastwest;rotatable=0;whiteSpace=wrap;html=1;" vertex="1" parent="5nWIDLDmSM9QNlosTWBB-16">
          <mxGeometry y="150" width="180" height="30" as="geometry" />
        </mxCell>
        <mxCell id="5nWIDLDmSM9QNlosTWBB-26" value="chapitre" style="swimlane;fontStyle=0;childLayout=stackLayout;horizontal=1;startSize=30;horizontalStack=0;resizeParent=1;resizeParentMax=0;resizeLast=0;collapsible=1;marginBottom=0;whiteSpace=wrap;html=1;" vertex="1" parent="1">
          <mxGeometry x="600" y="465" width="180" height="150" as="geometry" />
        </mxCell>
        <mxCell id="5nWIDLDmSM9QNlosTWBB-27" value="id&amp;nbsp; &amp;nbsp; &amp;nbsp; &amp;nbsp; &amp;nbsp; &amp;nbsp; &amp;nbsp; &amp;nbsp; &amp;nbsp; &amp;nbsp; &amp;nbsp; &amp;nbsp; &amp;nbsp; &amp;nbsp; &amp;nbsp; &amp;nbsp; &amp;nbsp; INT&amp;nbsp; PK" style="text;strokeColor=none;fillColor=none;align=left;verticalAlign=middle;spacingLeft=4;spacingRight=4;overflow=hidden;points=[[0,0.5],[1,0.5]];portConstraint=eastwest;rotatable=0;whiteSpace=wrap;html=1;" vertex="1" parent="5nWIDLDmSM9QNlosTWBB-26">
          <mxGeometry y="30" width="180" height="30" as="geometry" />
        </mxCell>
        <mxCell id="4sbm2EOBQqG20B3NACQz-49" value="id_livre&amp;nbsp; &amp;nbsp; &amp;nbsp; &amp;nbsp; &amp;nbsp; &amp;nbsp; &amp;nbsp; &amp;nbsp; &amp;nbsp; &amp;nbsp; &amp;nbsp; &amp;nbsp; &amp;nbsp; &amp;nbsp; &amp;nbsp; &amp;nbsp; &amp;nbsp;INT" style="text;strokeColor=none;fillColor=none;align=left;verticalAlign=middle;spacingLeft=4;spacingRight=4;overflow=hidden;points=[[0,0.5],[1,0.5]];portConstraint=eastwest;rotatable=0;whiteSpace=wrap;html=1;" vertex="1" parent="5nWIDLDmSM9QNlosTWBB-26">
          <mxGeometry y="60" width="180" height="30" as="geometry" />
        </mxCell>
        <mxCell id="rj1XDq68sv5McHetJD-t-2" value="no_chapitre&amp;nbsp; &amp;nbsp; &amp;nbsp; &amp;nbsp; &amp;nbsp; &amp;nbsp; &amp;nbsp; &amp;nbsp; &amp;nbsp; &amp;nbsp; &amp;nbsp; &amp;nbsp; &amp;nbsp; INT" style="text;strokeColor=none;fillColor=none;align=left;verticalAlign=middle;spacingLeft=4;spacingRight=4;overflow=hidden;points=[[0,0.5],[1,0.5]];portConstraint=eastwest;rotatable=0;whiteSpace=wrap;html=1;" vertex="1" parent="5nWIDLDmSM9QNlosTWBB-26">
          <mxGeometry y="90" width="180" height="30" as="geometry" />
        </mxCell>
        <mxCell id="5nWIDLDmSM9QNlosTWBB-34" value="texte&amp;nbsp; &amp;nbsp; &amp;nbsp; &amp;nbsp; &amp;nbsp; &amp;nbsp; &amp;nbsp; &amp;nbsp; &amp;nbsp; &amp;nbsp; &amp;nbsp; &amp;nbsp; &amp;nbsp; &amp;nbsp; &amp;nbsp; &amp;nbsp; BLOB" style="text;strokeColor=none;fillColor=none;align=left;verticalAlign=middle;spacingLeft=4;spacingRight=4;overflow=hidden;points=[[0,0.5],[1,0.5]];portConstraint=eastwest;rotatable=0;whiteSpace=wrap;html=1;" vertex="1" parent="5nWIDLDmSM9QNlosTWBB-26">
          <mxGeometry y="120" width="180" height="30" as="geometry" />
        </mxCell>
        <mxCell id="5nWIDLDmSM9QNlosTWBB-35" value="personnage" style="swimlane;fontStyle=0;childLayout=stackLayout;horizontal=1;startSize=30;horizontalStack=0;resizeParent=1;resizeParentMax=0;resizeLast=0;collapsible=1;marginBottom=0;whiteSpace=wrap;html=1;" vertex="1" parent="1">
          <mxGeometry x="323.5" y="560" width="180" height="180" as="geometry" />
        </mxCell>
        <mxCell id="5nWIDLDmSM9QNlosTWBB-36" value="id&amp;nbsp; &amp;nbsp; &amp;nbsp; &amp;nbsp; &amp;nbsp; &amp;nbsp; &amp;nbsp; &amp;nbsp; &amp;nbsp; &amp;nbsp; &amp;nbsp; &amp;nbsp; &amp;nbsp; &amp;nbsp; &amp;nbsp; &amp;nbsp; &amp;nbsp; &amp;nbsp;INT PK" style="text;strokeColor=none;fillColor=none;align=left;verticalAlign=middle;spacingLeft=4;spacingRight=4;overflow=hidden;points=[[0,0.5],[1,0.5]];portConstraint=eastwest;rotatable=0;whiteSpace=wrap;html=1;" vertex="1" parent="5nWIDLDmSM9QNlosTWBB-35">
          <mxGeometry y="30" width="180" height="30" as="geometry" />
        </mxCell>
        <mxCell id="1-YImkQfyu-y9lqLh59H-1" value="id_livre&amp;nbsp; &amp;nbsp; &amp;nbsp; &amp;nbsp; &amp;nbsp; &amp;nbsp; &amp;nbsp; &amp;nbsp; &amp;nbsp; &amp;nbsp; &amp;nbsp; &amp;nbsp; &amp;nbsp;INT PK" style="text;strokeColor=none;fillColor=none;align=left;verticalAlign=middle;spacingLeft=4;spacingRight=4;overflow=hidden;points=[[0,0.5],[1,0.5]];portConstraint=eastwest;rotatable=0;whiteSpace=wrap;html=1;" vertex="1" parent="5nWIDLDmSM9QNlosTWBB-35">
          <mxGeometry y="60" width="180" height="30" as="geometry" />
        </mxCell>
        <mxCell id="4sbm2EOBQqG20B3NACQz-19" value="nom&amp;nbsp; &amp;nbsp; &amp;nbsp; &amp;nbsp; &amp;nbsp; &amp;nbsp; &amp;nbsp; &amp;nbsp; &amp;nbsp;VARCHAR(255)" style="text;strokeColor=none;fillColor=none;align=left;verticalAlign=middle;spacingLeft=4;spacingRight=4;overflow=hidden;points=[[0,0.5],[1,0.5]];portConstraint=eastwest;rotatable=0;whiteSpace=wrap;html=1;" vertex="1" parent="5nWIDLDmSM9QNlosTWBB-35">
          <mxGeometry y="90" width="180" height="30" as="geometry" />
        </mxCell>
        <mxCell id="5nWIDLDmSM9QNlosTWBB-42" value="habilite&amp;nbsp; &amp;nbsp; &amp;nbsp; &amp;nbsp; &amp;nbsp; &amp;nbsp; &amp;nbsp;VARCHAR(255)" style="text;strokeColor=none;fillColor=none;align=left;verticalAlign=middle;spacingLeft=4;spacingRight=4;overflow=hidden;points=[[0,0.5],[1,0.5]];portConstraint=eastwest;rotatable=0;whiteSpace=wrap;html=1;" vertex="1" parent="5nWIDLDmSM9QNlosTWBB-35">
          <mxGeometry y="120" width="180" height="30" as="geometry" />
        </mxCell>
        <mxCell id="5nWIDLDmSM9QNlosTWBB-38" value="endurance&amp;nbsp; &amp;nbsp; &amp;nbsp; &amp;nbsp;VARCHAR(255)" style="text;strokeColor=none;fillColor=none;align=left;verticalAlign=middle;spacingLeft=4;spacingRight=4;overflow=hidden;points=[[0,0.5],[1,0.5]];portConstraint=eastwest;rotatable=0;whiteSpace=wrap;html=1;" vertex="1" parent="5nWIDLDmSM9QNlosTWBB-35">
          <mxGeometry y="150" width="180" height="30" as="geometry" />
        </mxCell>
        <mxCell id="ViWWnfn36A3kfEYD5QgW-9" value="sauvegarde" style="swimlane;fontStyle=0;childLayout=stackLayout;horizontal=1;startSize=30;horizontalStack=0;resizeParent=1;resizeParentMax=0;resizeLast=0;collapsible=1;marginBottom=0;whiteSpace=wrap;html=1;" vertex="1" parent="1">
          <mxGeometry x="30" y="360" width="230" height="180" as="geometry" />
        </mxCell>
        <mxCell id="ViWWnfn36A3kfEYD5QgW-10" value="id&lt;span style=&quot;white-space: pre;&quot;&gt;&#x9;&lt;/span&gt;&amp;nbsp; &amp;nbsp; &amp;nbsp; &amp;nbsp; &amp;nbsp; &amp;nbsp; &amp;nbsp; &amp;nbsp; &amp;nbsp; &amp;nbsp; &amp;nbsp; &amp;nbsp; &amp;nbsp; &amp;nbsp; &amp;nbsp; &amp;nbsp; &amp;nbsp; &amp;nbsp; &amp;nbsp; &amp;nbsp; &amp;nbsp; &amp;nbsp;INT PK" style="text;strokeColor=none;fillColor=none;align=left;verticalAlign=middle;spacingLeft=4;spacingRight=4;overflow=hidden;points=[[0,0.5],[1,0.5]];portConstraint=eastwest;rotatable=0;whiteSpace=wrap;html=1;" vertex="1" parent="ViWWnfn36A3kfEYD5QgW-9">
          <mxGeometry y="30" width="230" height="30" as="geometry" />
        </mxCell>
        <mxCell id="4sbm2EOBQqG20B3NACQz-47" value="nom&amp;nbsp; &amp;nbsp; &amp;nbsp; &amp;nbsp; &amp;nbsp; &amp;nbsp; &amp;nbsp; &amp;nbsp; &amp;nbsp; &amp;nbsp; &amp;nbsp; &amp;nbsp; &amp;nbsp; &amp;nbsp; &amp;nbsp; VARCHAR(255)" style="text;strokeColor=none;fillColor=none;align=left;verticalAlign=middle;spacingLeft=4;spacingRight=4;overflow=hidden;points=[[0,0.5],[1,0.5]];portConstraint=eastwest;rotatable=0;whiteSpace=wrap;html=1;" vertex="1" parent="ViWWnfn36A3kfEYD5QgW-9">
          <mxGeometry y="60" width="230" height="30" as="geometry" />
        </mxCell>
        <mxCell id="ViWWnfn36A3kfEYD5QgW-11" value="date&amp;nbsp; &amp;nbsp; &amp;nbsp; &amp;nbsp; &amp;nbsp; &amp;nbsp; &amp;nbsp; &amp;nbsp; &amp;nbsp; &amp;nbsp; &amp;nbsp; &amp;nbsp; &amp;nbsp; &amp;nbsp; &amp;nbsp; &amp;nbsp; &amp;nbsp; &amp;nbsp; &amp;nbsp; DATETIME" style="text;strokeColor=none;fillColor=none;align=left;verticalAlign=middle;spacingLeft=4;spacingRight=4;overflow=hidden;points=[[0,0.5],[1,0.5]];portConstraint=eastwest;rotatable=0;whiteSpace=wrap;html=1;" vertex="1" parent="ViWWnfn36A3kfEYD5QgW-9">
          <mxGeometry y="90" width="230" height="30" as="geometry" />
        </mxCell>
        <mxCell id="4sbm2EOBQqG20B3NACQz-48" value="id_livre&amp;nbsp; &amp;nbsp; &amp;nbsp; &amp;nbsp; &amp;nbsp; &amp;nbsp; &amp;nbsp; &amp;nbsp; &amp;nbsp; &amp;nbsp; &amp;nbsp; &amp;nbsp; &amp;nbsp; &amp;nbsp; &amp;nbsp; &amp;nbsp; &amp;nbsp; &amp;nbsp; &amp;nbsp; &amp;nbsp; &amp;nbsp; &amp;nbsp; &amp;nbsp; INT" style="text;strokeColor=none;fillColor=none;align=left;verticalAlign=middle;spacingLeft=4;spacingRight=4;overflow=hidden;points=[[0,0.5],[1,0.5]];portConstraint=eastwest;rotatable=0;whiteSpace=wrap;html=1;" vertex="1" parent="ViWWnfn36A3kfEYD5QgW-9">
          <mxGeometry y="120" width="230" height="30" as="geometry" />
        </mxCell>
        <mxCell id="1-YImkQfyu-y9lqLh59H-2" value="id_personnage&amp;nbsp; &amp;nbsp; &amp;nbsp; &amp;nbsp; &amp;nbsp; &amp;nbsp; &amp;nbsp; &amp;nbsp; &amp;nbsp; &amp;nbsp; &amp;nbsp; &amp;nbsp; &amp;nbsp; &amp;nbsp; &amp;nbsp; &amp;nbsp; &amp;nbsp; INT" style="text;strokeColor=none;fillColor=none;align=left;verticalAlign=middle;spacingLeft=4;spacingRight=4;overflow=hidden;points=[[0,0.5],[1,0.5]];portConstraint=eastwest;rotatable=0;whiteSpace=wrap;html=1;" vertex="1" parent="ViWWnfn36A3kfEYD5QgW-9">
          <mxGeometry y="150" width="230" height="30" as="geometry" />
        </mxCell>
        <mxCell id="4sbm2EOBQqG20B3NACQz-1" value="arme" style="swimlane;fontStyle=0;childLayout=stackLayout;horizontal=1;startSize=30;horizontalStack=0;resizeParent=1;resizeParentMax=0;resizeLast=0;collapsible=1;marginBottom=0;whiteSpace=wrap;html=1;" vertex="1" parent="1">
          <mxGeometry x="460" y="1050" width="170" height="90" as="geometry" />
        </mxCell>
        <mxCell id="4sbm2EOBQqG20B3NACQz-2" value="id&amp;nbsp; &amp;nbsp; &amp;nbsp; &amp;nbsp; &amp;nbsp; &amp;nbsp; &amp;nbsp; &amp;nbsp; &amp;nbsp; &amp;nbsp; &amp;nbsp; &amp;nbsp; &amp;nbsp; &amp;nbsp; &amp;nbsp; INT&amp;nbsp; &amp;nbsp;PK" style="text;strokeColor=none;fillColor=none;align=left;verticalAlign=middle;spacingLeft=4;spacingRight=4;overflow=hidden;points=[[0,0.5],[1,0.5]];portConstraint=eastwest;rotatable=0;whiteSpace=wrap;html=1;" vertex="1" parent="4sbm2EOBQqG20B3NACQz-1">
          <mxGeometry y="30" width="170" height="30" as="geometry" />
        </mxCell>
        <mxCell id="4sbm2EOBQqG20B3NACQz-3" value="arme&amp;nbsp; &amp;nbsp; &amp;nbsp; &amp;nbsp; &amp;nbsp; &amp;nbsp; &amp;nbsp;VARCHAR(255)" style="text;strokeColor=none;fillColor=none;align=left;verticalAlign=middle;spacingLeft=4;spacingRight=4;overflow=hidden;points=[[0,0.5],[1,0.5]];portConstraint=eastwest;rotatable=0;whiteSpace=wrap;html=1;" vertex="1" parent="4sbm2EOBQqG20B3NACQz-1">
          <mxGeometry y="60" width="170" height="30" as="geometry" />
        </mxCell>
        <mxCell id="4sbm2EOBQqG20B3NACQz-22" value="sac_a_dos" style="swimlane;fontStyle=0;childLayout=stackLayout;horizontal=1;startSize=30;horizontalStack=0;resizeParent=1;resizeParentMax=0;resizeLast=0;collapsible=1;marginBottom=0;whiteSpace=wrap;html=1;" vertex="1" parent="1">
          <mxGeometry x="20" y="620" width="220" height="210" as="geometry" />
        </mxCell>
        <mxCell id="4sbm2EOBQqG20B3NACQz-23" value="id&amp;nbsp; &amp;nbsp; &amp;nbsp;&lt;span style=&quot;white-space: pre;&quot;&gt;&#x9;&lt;/span&gt;&amp;nbsp; &amp;nbsp; &amp;nbsp; &amp;nbsp; &amp;nbsp; &amp;nbsp; &amp;nbsp; &amp;nbsp; &amp;nbsp; &amp;nbsp; &amp;nbsp; &amp;nbsp; &amp;nbsp; &amp;nbsp; &amp;nbsp; &amp;nbsp; &amp;nbsp;INT PK" style="text;strokeColor=none;fillColor=none;align=left;verticalAlign=middle;spacingLeft=4;spacingRight=4;overflow=hidden;points=[[0,0.5],[1,0.5]];portConstraint=eastwest;rotatable=0;whiteSpace=wrap;html=1;" vertex="1" parent="4sbm2EOBQqG20B3NACQz-22">
          <mxGeometry y="30" width="220" height="30" as="geometry" />
        </mxCell>
        <mxCell id="4sbm2EOBQqG20B3NACQz-30" value="objets&amp;nbsp; &amp;nbsp; &amp;nbsp; &amp;nbsp; &amp;nbsp; &amp;nbsp; &amp;nbsp; &amp;nbsp; &amp;nbsp; &amp;nbsp; &amp;nbsp; &amp;nbsp; &amp;nbsp; &amp;nbsp;VARCHAR(255)" style="text;strokeColor=none;fillColor=none;align=left;verticalAlign=middle;spacingLeft=4;spacingRight=4;overflow=hidden;points=[[0,0.5],[1,0.5]];portConstraint=eastwest;rotatable=0;whiteSpace=wrap;html=1;" vertex="1" parent="4sbm2EOBQqG20B3NACQz-22">
          <mxGeometry y="60" width="220" height="30" as="geometry" />
        </mxCell>
        <mxCell id="4sbm2EOBQqG20B3NACQz-28" value="bourse&amp;nbsp; &amp;nbsp; &amp;nbsp; &amp;nbsp; &amp;nbsp; &amp;nbsp; &amp;nbsp; &amp;nbsp; &amp;nbsp; &amp;nbsp; &amp;nbsp; &amp;nbsp; &amp;nbsp; &amp;nbsp; &amp;nbsp; &amp;nbsp; &amp;nbsp; &amp;nbsp; &amp;nbsp; &amp;nbsp; &amp;nbsp; &amp;nbsp; &amp;nbsp;INT" style="text;strokeColor=none;fillColor=none;align=left;verticalAlign=middle;spacingLeft=4;spacingRight=4;overflow=hidden;points=[[0,0.5],[1,0.5]];portConstraint=eastwest;rotatable=0;whiteSpace=wrap;html=1;" vertex="1" parent="4sbm2EOBQqG20B3NACQz-22">
          <mxGeometry y="90" width="220" height="30" as="geometry" />
        </mxCell>
        <mxCell id="4sbm2EOBQqG20B3NACQz-29" value="objets_speciaux&amp;nbsp; &amp;nbsp; &amp;nbsp; &amp;nbsp; &amp;nbsp; &amp;nbsp;VARCHAR(255)" style="text;strokeColor=none;fillColor=none;align=left;verticalAlign=middle;spacingLeft=4;spacingRight=4;overflow=hidden;points=[[0,0.5],[1,0.5]];portConstraint=eastwest;rotatable=0;whiteSpace=wrap;html=1;" vertex="1" parent="4sbm2EOBQqG20B3NACQz-22">
          <mxGeometry y="120" width="220" height="30" as="geometry" />
        </mxCell>
        <mxCell id="4sbm2EOBQqG20B3NACQz-24" value="repas&amp;nbsp; &amp;nbsp; &amp;nbsp; &amp;nbsp; &amp;nbsp; &amp;nbsp; &amp;nbsp; &amp;nbsp; &amp;nbsp; &amp;nbsp; &amp;nbsp; &amp;nbsp; &amp;nbsp; &amp;nbsp; VARCHAR(255)" style="text;strokeColor=none;fillColor=none;align=left;verticalAlign=middle;spacingLeft=4;spacingRight=4;overflow=hidden;points=[[0,0.5],[1,0.5]];portConstraint=eastwest;rotatable=0;whiteSpace=wrap;html=1;" vertex="1" parent="4sbm2EOBQqG20B3NACQz-22">
          <mxGeometry y="150" width="220" height="30" as="geometry" />
        </mxCell>
        <mxCell id="1-YImkQfyu-y9lqLh59H-3" value="id_personnage&amp;nbsp; &amp;nbsp; &amp;nbsp; &amp;nbsp; &amp;nbsp; &amp;nbsp; &amp;nbsp; &amp;nbsp; &amp;nbsp; &amp;nbsp; &amp;nbsp; &amp;nbsp; &amp;nbsp; &amp;nbsp; &amp;nbsp; &amp;nbsp; INT" style="text;strokeColor=none;fillColor=none;align=left;verticalAlign=middle;spacingLeft=4;spacingRight=4;overflow=hidden;points=[[0,0.5],[1,0.5]];portConstraint=eastwest;rotatable=0;whiteSpace=wrap;html=1;" vertex="1" parent="4sbm2EOBQqG20B3NACQz-22">
          <mxGeometry y="180" width="220" height="30" as="geometry" />
        </mxCell>
        <mxCell id="4sbm2EOBQqG20B3NACQz-31" value="discipline" style="swimlane;fontStyle=0;childLayout=stackLayout;horizontal=1;startSize=30;horizontalStack=0;resizeParent=1;resizeParentMax=0;resizeLast=0;collapsible=1;marginBottom=0;whiteSpace=wrap;html=1;" vertex="1" parent="1">
          <mxGeometry x="10" y="1035" width="170" height="90" as="geometry" />
        </mxCell>
        <mxCell id="4sbm2EOBQqG20B3NACQz-32" value="id&amp;nbsp; &amp;nbsp; &amp;nbsp; &amp;nbsp; &amp;nbsp; &amp;nbsp; &amp;nbsp; &amp;nbsp; &amp;nbsp; &amp;nbsp; &amp;nbsp; &amp;nbsp; &amp;nbsp; &amp;nbsp; &amp;nbsp; INT&amp;nbsp; &amp;nbsp;PK" style="text;strokeColor=none;fillColor=none;align=left;verticalAlign=middle;spacingLeft=4;spacingRight=4;overflow=hidden;points=[[0,0.5],[1,0.5]];portConstraint=eastwest;rotatable=0;whiteSpace=wrap;html=1;" vertex="1" parent="4sbm2EOBQqG20B3NACQz-31">
          <mxGeometry y="30" width="170" height="30" as="geometry" />
        </mxCell>
        <mxCell id="4sbm2EOBQqG20B3NACQz-37" value="disipline&amp;nbsp; &amp;nbsp; &amp;nbsp; &amp;nbsp;VARCHAR(255)" style="text;strokeColor=none;fillColor=none;align=left;verticalAlign=middle;spacingLeft=4;spacingRight=4;overflow=hidden;points=[[0,0.5],[1,0.5]];portConstraint=eastwest;rotatable=0;whiteSpace=wrap;html=1;" vertex="1" parent="4sbm2EOBQqG20B3NACQz-31">
          <mxGeometry y="60" width="170" height="30" as="geometry" />
        </mxCell>
        <mxCell id="4sbm2EOBQqG20B3NACQz-38" value="groupe_disipline" style="swimlane;fontStyle=0;childLayout=stackLayout;horizontal=1;startSize=30;horizontalStack=0;resizeParent=1;resizeParentMax=0;resizeLast=0;collapsible=1;marginBottom=0;whiteSpace=wrap;html=1;" vertex="1" parent="1">
          <mxGeometry x="140" y="860" width="200" height="120" as="geometry" />
        </mxCell>
        <mxCell id="4sbm2EOBQqG20B3NACQz-39" value="id&amp;nbsp; &amp;nbsp; &amp;nbsp; &amp;nbsp; &amp;nbsp; &amp;nbsp; &amp;nbsp; &amp;nbsp; &amp;nbsp; &amp;nbsp; &amp;nbsp; &amp;nbsp; &amp;nbsp; &amp;nbsp; &amp;nbsp; &amp;nbsp; &amp;nbsp; &amp;nbsp; &amp;nbsp; &amp;nbsp;INT&amp;nbsp; PK" style="text;strokeColor=none;fillColor=none;align=left;verticalAlign=middle;spacingLeft=4;spacingRight=4;overflow=hidden;points=[[0,0.5],[1,0.5]];portConstraint=eastwest;rotatable=0;whiteSpace=wrap;html=1;" vertex="1" parent="4sbm2EOBQqG20B3NACQz-38">
          <mxGeometry y="30" width="200" height="30" as="geometry" />
        </mxCell>
        <mxCell id="4sbm2EOBQqG20B3NACQz-40" value="id_personage&amp;nbsp; &amp;nbsp; &amp;nbsp; &amp;nbsp; &amp;nbsp; &amp;nbsp; &amp;nbsp; &amp;nbsp; &amp;nbsp; &amp;nbsp; &amp;nbsp; &amp;nbsp; &amp;nbsp; &amp;nbsp;INT" style="text;strokeColor=none;fillColor=none;align=left;verticalAlign=middle;spacingLeft=4;spacingRight=4;overflow=hidden;points=[[0,0.5],[1,0.5]];portConstraint=eastwest;rotatable=0;whiteSpace=wrap;html=1;" vertex="1" parent="4sbm2EOBQqG20B3NACQz-38">
          <mxGeometry y="60" width="200" height="30" as="geometry" />
        </mxCell>
        <mxCell id="4sbm2EOBQqG20B3NACQz-41" value="id_disipline&amp;nbsp; &amp;nbsp; &amp;nbsp; &amp;nbsp; &amp;nbsp; &amp;nbsp; &amp;nbsp; &amp;nbsp; &amp;nbsp; &amp;nbsp; &amp;lt;c1&amp;gt;&amp;nbsp; &amp;nbsp; INT" style="text;strokeColor=none;fillColor=none;align=left;verticalAlign=middle;spacingLeft=4;spacingRight=4;overflow=hidden;points=[[0,0.5],[1,0.5]];portConstraint=eastwest;rotatable=0;whiteSpace=wrap;html=1;" vertex="1" parent="4sbm2EOBQqG20B3NACQz-38">
          <mxGeometry y="90" width="200" height="30" as="geometry" />
        </mxCell>
        <mxCell id="4sbm2EOBQqG20B3NACQz-42" value="groupe_arme" style="swimlane;fontStyle=0;childLayout=stackLayout;horizontal=1;startSize=30;horizontalStack=0;resizeParent=1;resizeParentMax=0;resizeLast=0;collapsible=1;marginBottom=0;whiteSpace=wrap;html=1;" vertex="1" parent="1">
          <mxGeometry x="440" y="880" width="180" height="120" as="geometry" />
        </mxCell>
        <mxCell id="4sbm2EOBQqG20B3NACQz-43" value="id&amp;nbsp; &amp;nbsp; &amp;nbsp; &amp;nbsp; &amp;nbsp; &amp;nbsp; &amp;nbsp; &amp;nbsp; &amp;nbsp; &amp;nbsp; &amp;nbsp; &amp;nbsp; &amp;nbsp; &amp;nbsp; &amp;nbsp; &amp;nbsp;INT&amp;nbsp; &amp;nbsp; &amp;nbsp; PK" style="text;strokeColor=none;fillColor=none;align=left;verticalAlign=middle;spacingLeft=4;spacingRight=4;overflow=hidden;points=[[0,0.5],[1,0.5]];portConstraint=eastwest;rotatable=0;whiteSpace=wrap;html=1;" vertex="1" parent="4sbm2EOBQqG20B3NACQz-42">
          <mxGeometry y="30" width="180" height="30" as="geometry" />
        </mxCell>
        <mxCell id="4sbm2EOBQqG20B3NACQz-44" value="id_personage&amp;nbsp; &amp;nbsp; &amp;nbsp; &amp;nbsp; &amp;nbsp; &amp;nbsp; &amp;nbsp; &amp;nbsp; &amp;nbsp; &amp;nbsp; &amp;nbsp; INT&amp;nbsp;" style="text;strokeColor=none;fillColor=none;align=left;verticalAlign=middle;spacingLeft=4;spacingRight=4;overflow=hidden;points=[[0,0.5],[1,0.5]];portConstraint=eastwest;rotatable=0;whiteSpace=wrap;html=1;" vertex="1" parent="4sbm2EOBQqG20B3NACQz-42">
          <mxGeometry y="60" width="180" height="30" as="geometry" />
        </mxCell>
        <mxCell id="4sbm2EOBQqG20B3NACQz-45" value="id_arme&amp;nbsp; &amp;nbsp; &amp;nbsp; &amp;nbsp; &amp;nbsp; &amp;nbsp; &amp;nbsp; &amp;nbsp; &amp;nbsp; &amp;nbsp; &amp;nbsp;&amp;lt;c2&amp;gt; INT" style="text;strokeColor=none;fillColor=none;align=left;verticalAlign=middle;spacingLeft=4;spacingRight=4;overflow=hidden;points=[[0,0.5],[1,0.5]];portConstraint=eastwest;rotatable=0;whiteSpace=wrap;html=1;" vertex="1" parent="4sbm2EOBQqG20B3NACQz-42">
          <mxGeometry y="90" width="180" height="30" as="geometry" />
        </mxCell>
        <mxCell id="1-YImkQfyu-y9lqLh59H-5" style="edgeStyle=orthogonalEdgeStyle;rounded=0;orthogonalLoop=1;jettySize=auto;html=1;entryX=1;entryY=0.5;entryDx=0;entryDy=0;" edge="1" parent="1" source="4sbm2EOBQqG20B3NACQz-49" target="5nWIDLDmSM9QNlosTWBB-4">
          <mxGeometry relative="1" as="geometry">
            <mxPoint x="380" y="490" as="targetPoint" />
            <Array as="points">
              <mxPoint x="570" y="540" />
              <mxPoint x="570" y="315" />
            </Array>
          </mxGeometry>
        </mxCell>
        <mxCell id="1-YImkQfyu-y9lqLh59H-6" style="edgeStyle=orthogonalEdgeStyle;rounded=0;orthogonalLoop=1;jettySize=auto;html=1;entryX=0;entryY=0.5;entryDx=0;entryDy=0;" edge="1" parent="1" source="4sbm2EOBQqG20B3NACQz-48" target="5nWIDLDmSM9QNlosTWBB-4">
          <mxGeometry relative="1" as="geometry" />
        </mxCell>
        <mxCell id="1-YImkQfyu-y9lqLh59H-7" style="edgeStyle=orthogonalEdgeStyle;rounded=0;orthogonalLoop=1;jettySize=auto;html=1;exitX=1;exitY=0.5;exitDx=0;exitDy=0;" edge="1" parent="1" source="1-YImkQfyu-y9lqLh59H-2" target="5nWIDLDmSM9QNlosTWBB-36">
          <mxGeometry relative="1" as="geometry" />
        </mxCell>
        <mxCell id="1-YImkQfyu-y9lqLh59H-8" style="edgeStyle=orthogonalEdgeStyle;rounded=0;orthogonalLoop=1;jettySize=auto;html=1;entryX=0;entryY=0.5;entryDx=0;entryDy=0;" edge="1" parent="1" source="1-YImkQfyu-y9lqLh59H-3" target="5nWIDLDmSM9QNlosTWBB-36">
          <mxGeometry relative="1" as="geometry">
            <Array as="points">
              <mxPoint x="260" y="815" />
              <mxPoint x="260" y="605" />
            </Array>
          </mxGeometry>
        </mxCell>
        <mxCell id="1-YImkQfyu-y9lqLh59H-9" style="edgeStyle=orthogonalEdgeStyle;rounded=0;orthogonalLoop=1;jettySize=auto;html=1;entryX=1;entryY=0.5;entryDx=0;entryDy=0;" edge="1" parent="1" source="5nWIDLDmSM9QNlosTWBB-33" target="5nWIDLDmSM9QNlosTWBB-4">
          <mxGeometry relative="1" as="geometry" />
        </mxCell>
        <mxCell id="1-YImkQfyu-y9lqLh59H-10" style="edgeStyle=orthogonalEdgeStyle;rounded=0;orthogonalLoop=1;jettySize=auto;html=1;entryX=0;entryY=0.5;entryDx=0;entryDy=0;" edge="1" parent="1" source="1-YImkQfyu-y9lqLh59H-1" target="5nWIDLDmSM9QNlosTWBB-4">
          <mxGeometry relative="1" as="geometry" />
        </mxCell>
        <mxCell id="1-YImkQfyu-y9lqLh59H-12" style="edgeStyle=orthogonalEdgeStyle;rounded=0;orthogonalLoop=1;jettySize=auto;html=1;entryX=1;entryY=0.5;entryDx=0;entryDy=0;" edge="1" parent="1" source="4sbm2EOBQqG20B3NACQz-44" target="5nWIDLDmSM9QNlosTWBB-36">
          <mxGeometry relative="1" as="geometry">
            <Array as="points">
              <mxPoint x="420" y="955" />
              <mxPoint x="420" y="780" />
              <mxPoint x="540" y="780" />
              <mxPoint x="540" y="605" />
            </Array>
          </mxGeometry>
        </mxCell>
        <mxCell id="1-YImkQfyu-y9lqLh59H-13" style="edgeStyle=orthogonalEdgeStyle;rounded=0;orthogonalLoop=1;jettySize=auto;html=1;entryX=1;entryY=0.5;entryDx=0;entryDy=0;" edge="1" parent="1" source="4sbm2EOBQqG20B3NACQz-45" target="4sbm2EOBQqG20B3NACQz-2">
          <mxGeometry relative="1" as="geometry" />
        </mxCell>
        <mxCell id="1-YImkQfyu-y9lqLh59H-16" style="edgeStyle=orthogonalEdgeStyle;rounded=0;orthogonalLoop=1;jettySize=auto;html=1;entryX=0;entryY=0.5;entryDx=0;entryDy=0;" edge="1" parent="1" source="4sbm2EOBQqG20B3NACQz-40" target="5nWIDLDmSM9QNlosTWBB-36">
          <mxGeometry relative="1" as="geometry">
            <Array as="points">
              <mxPoint x="360" y="935" />
              <mxPoint x="360" y="770" />
              <mxPoint x="300" y="770" />
              <mxPoint x="300" y="605" />
            </Array>
          </mxGeometry>
        </mxCell>
        <mxCell id="1-YImkQfyu-y9lqLh59H-18" style="edgeStyle=orthogonalEdgeStyle;rounded=0;orthogonalLoop=1;jettySize=auto;html=1;" edge="1" parent="1" source="4sbm2EOBQqG20B3NACQz-41" target="4sbm2EOBQqG20B3NACQz-32">
          <mxGeometry relative="1" as="geometry" />
        </mxCell>
      </root>
    </mxGraphModel>
  </diagram>
</mxfile>
